<?xml version="1.0" standalone="no"?>
<!DOCTYPE svg PUBLIC "-//W3C//DTD SVG 20010904//EN"
 "http://www.w3.org/TR/2001/REC-SVG-20010904/DTD/svg10.dtd">
<svg version="1.0" xmlns="http://www.w3.org/2000/svg"
 width="70.000000pt" height="70.000000pt" viewBox="0 0 70.000000 70.000000"
 preserveAspectRatio="xMidYMid meet">
<metadata>
Created by potrace 1.11, written by Peter Selinger 2001-2013
</metadata>
<g transform="translate(0.000000,70.000000) scale(0.100000,-0.100000)"
fill="#000000" stroke="none">
<path d="M0 350 l0 -350 350 0 350 0 0 350 0 350 -350 0 -350 0 0 -350z m366
288 l19 -23 -21 18 c-19 16 -23 16 -34 2 -7 -8 -18 -15 -24 -15 -9 1 29 40 39
40 1 0 10 -10 21 -22z m-66 -38 c0 -5 -10 -15 -22 -21 -23 -12 -23 -12 -4 10
21 23 26 26 26 11z m-58 -53 c-6 -7 -49 -51 -96 -97 -47 -47 -86 -88 -86 -92
0 -7 239 -250 272 -276 14 -11 19 -10 37 9 11 13 23 20 26 18 3 -3 -8 -17 -23
-32 l-28 -27 -152 152 -153 152 103 103 c92 92 130 127 100 90z m153 -125 c-5
-41 -3 -57 7 -64 10 -7 10 -10 -4 -19 -13 -7 -18 -23 -18 -56 0 -60 -10 -50
-12 11 -1 46 -1 47 -27 41 -14 -3 -32 -13 -38 -22 -12 -16 -13 -16 -13 0 0 9
-7 17 -15 17 -8 0 -15 5 -15 10 0 6 7 10 15 10 17 0 17 0 6 58 -5 23 -7 42 -5
42 22 0 34 -17 34 -51 0 -37 2 -39 30 -39 29 0 30 2 30 43 0 54 10 88 22 81 6
-4 7 -28 3 -62z m130 -192 c-60 -60 -114 -110 -119 -110 -6 0 39 49 100 110
61 61 114 110 119 110 6 0 -40 -49 -100 -110z"/>
</g>
</svg>
